<svg id="visual" viewBox="0 0 900 600" width="900" height="600" xmlns="http://www.w3.org/2000/svg" xmlns:xlink="http://www.w3.org/1999/xlink" version="1.1"><path d="M0 124L15 117.8C30 111.7 60 99.3 90 98.2C120 97 150 107 180 111.7C210 116.3 240 115.7 270 117.8C300 120 330 125 360 126.5C390 128 420 126 450 119C480 112 510 100 540 93.2C570 86.3 600 84.7 630 87.3C660 90 690 97 720 94.8C750 92.7 780 81.3 810 82.5C840 83.7 870 97.3 885 104.2L900 111L900 0L885 0C870 0 840 0 810 0C780 0 750 0 720 0C690 0 660 0 630 0C600 0 570 0 540 0C510 0 480 0 450 0C420 0 390 0 360 0C330 0 300 0 270 0C240 0 210 0 180 0C150 0 120 0 90 0C60 0 30 0 15 0L0 0Z" fill="#004cbe"></path><path d="M0 122L15 112.7C30 103.3 60 84.7 90 77.5C120 70.3 150 74.7 180 81.2C210 87.7 240 96.3 270 98.7C300 101 330 97 360 98.7C390 100.3 420 107.7 450 112.5C480 117.3 510 119.7 540 114C570 108.3 600 94.7 630 88.7C660 82.7 690 84.3 720 85.3C750 86.3 780 86.7 810 85.2C840 83.7 870 80.3 885 78.7L900 77L900 0L885 0C870 0 840 0 810 0C780 0 750 0 720 0C690 0 660 0 630 0C600 0 570 0 540 0C510 0 480 0 450 0C420 0 390 0 360 0C330 0 300 0 270 0C240 0 210 0 180 0C150 0 120 0 90 0C60 0 30 0 15 0L0 0Z" fill="#0239a5"></path><path d="M0 42L15 47.2C30 52.3 60 62.7 90 62.8C120 63 150 53 180 49.5C210 46 240 49 270 51.7C300 54.3 330 56.7 360 62.8C390 69 420 79 450 82.7C480 86.3 510 83.7 540 75.7C570 67.7 600 54.3 630 48.3C660 42.3 690 43.7 720 48C750 52.3 780 59.7 810 67.7C840 75.7 870 84.3 885 88.7L900 93L900 0L885 0C870 0 840 0 810 0C780 0 750 0 720 0C690 0 660 0 630 0C600 0 570 0 540 0C510 0 480 0 450 0C420 0 390 0 360 0C330 0 300 0 270 0C240 0 210 0 180 0C150 0 120 0 90 0C60 0 30 0 15 0L0 0Z" fill="#00268d"></path><path d="M0 59L15 54.8C30 50.7 60 42.3 90 41.3C120 40.3 150 46.7 180 49.5C210 52.3 240 51.7 270 53.8C300 56 330 61 360 62C390 63 420 60 450 57.3C480 54.7 510 52.3 540 49.8C570 47.3 600 44.7 630 43.7C660 42.7 690 43.3 720 47.2C750 51 780 58 810 61.7C840 65.3 870 65.7 885 65.8L900 66L900 0L885 0C870 0 840 0 810 0C780 0 750 0 720 0C690 0 660 0 630 0C600 0 570 0 540 0C510 0 480 0 450 0C420 0 390 0 360 0C330 0 300 0 270 0C240 0 210 0 180 0C150 0 120 0 90 0C60 0 30 0 15 0L0 0Z" fill="#001171"></path><path d="M0 40L15 38.8C30 37.7 60 35.3 90 31.3C120 27.3 150 21.7 180 23C210 24.3 240 32.7 270 32.8C300 33 330 25 360 21.5C390 18 420 19 450 22.2C480 25.3 510 30.7 540 29.5C570 28.3 600 20.7 630 20.7C660 20.7 690 28.3 720 33.5C750 38.7 780 41.3 810 37.3C840 33.3 870 22.7 885 17.3L900 12L900 0L885 0C870 0 840 0 810 0C780 0 750 0 720 0C690 0 660 0 630 0C600 0 570 0 540 0C510 0 480 0 450 0C420 0 390 0 360 0C330 0 300 0 270 0C240 0 210 0 180 0C150 0 120 0 90 0C60 0 30 0 15 0L0 0Z" fill="#000000"></path></svg>