<svg id="visual" viewBox="0 0 900 450" width="900" height="450" xmlns="http://www.w3.org/2000/svg" xmlns:xlink="http://www.w3.org/1999/xlink" version="1.1"><path d="M0 120L15 114.2C30 108.3 60 96.7 90 83.3C120 70 150 55 180 45.8C210 36.7 240 33.3 270 48.2C300 63 330 96 360 111.7C390 127.3 420 125.7 450 118.5C480 111.3 510 98.7 540 94C570 89.3 600 92.7 630 86.3C660 80 690 64 720 59.5C750 55 780 62 810 74.8C840 87.7 870 106.3 885 115.7L900 125L900 0L885 0C870 0 840 0 810 0C780 0 750 0 720 0C690 0 660 0 630 0C600 0 570 0 540 0C510 0 480 0 450 0C420 0 390 0 360 0C330 0 300 0 270 0C240 0 210 0 180 0C150 0 120 0 90 0C60 0 30 0 15 0L0 0Z" fill="#004cbe"></path><path d="M0 104L15 97.2C30 90.3 60 76.7 90 65.8C120 55 150 47 180 47.5C210 48 240 57 270 57.8C300 58.7 330 51.3 360 44.7C390 38 420 32 450 43.2C480 54.3 510 82.7 540 84.5C570 86.3 600 61.7 630 55.8C660 50 690 63 720 74C750 85 780 94 810 91.2C840 88.3 870 73.7 885 66.3L900 59L900 0L885 0C870 0 840 0 810 0C780 0 750 0 720 0C690 0 660 0 630 0C600 0 570 0 540 0C510 0 480 0 450 0C420 0 390 0 360 0C330 0 300 0 270 0C240 0 210 0 180 0C150 0 120 0 90 0C60 0 30 0 15 0L0 0Z" fill="#003e91"></path><path d="M0 50L15 44.8C30 39.7 60 29.3 90 23.7C120 18 150 17 180 17.8C210 18.7 240 21.3 270 32.5C300 43.7 330 63.3 360 64.5C390 65.7 420 48.3 450 42.7C480 37 510 43 540 40C570 37 600 25 630 27.2C660 29.3 690 45.7 720 49.3C750 53 780 44 810 46C840 48 870 61 885 67.5L900 74L900 0L885 0C870 0 840 0 810 0C780 0 750 0 720 0C690 0 660 0 630 0C600 0 570 0 540 0C510 0 480 0 450 0C420 0 390 0 360 0C330 0 300 0 270 0C240 0 210 0 180 0C150 0 120 0 90 0C60 0 30 0 15 0L0 0Z" fill="#002f65"></path><path d="M0 31L15 31.2C30 31.3 60 31.7 90 37C120 42.3 150 52.7 180 48.5C210 44.3 240 25.7 270 23.7C300 21.7 330 36.3 360 43.2C390 50 420 49 450 46.3C480 43.7 510 39.3 540 39.7C570 40 600 45 630 47C660 49 690 48 720 48.8C750 49.7 780 52.3 810 51C840 49.7 870 44.3 885 41.7L900 39L900 0L885 0C870 0 840 0 810 0C780 0 750 0 720 0C690 0 660 0 630 0C600 0 570 0 540 0C510 0 480 0 450 0C420 0 390 0 360 0C330 0 300 0 270 0C240 0 210 0 180 0C150 0 120 0 90 0C60 0 30 0 15 0L0 0Z" fill="#021f3a"></path><path d="M0 11L15 12.8C30 14.7 60 18.3 90 18.8C120 19.3 150 16.7 180 16.5C210 16.3 240 18.7 270 18.3C300 18 330 15 360 11.5C390 8 420 4 450 8.2C480 12.3 510 24.7 540 29.7C570 34.7 600 32.3 630 31.8C660 31.3 690 32.7 720 31.2C750 29.7 780 25.3 810 22.7C840 20 870 19 885 18.5L900 18L900 0L885 0C870 0 840 0 810 0C780 0 750 0 720 0C690 0 660 0 630 0C600 0 570 0 540 0C510 0 480 0 450 0C420 0 390 0 360 0C330 0 300 0 270 0C240 0 210 0 180 0C150 0 120 0 90 0C60 0 30 0 15 0L0 0Z" fill="#030a12"></path></svg>